<svg width="20" height="18" viewBox="0 0 20 18" fill="none" xmlns="http://www.w3.org/2000/svg">
<path d="M19.4141 6.81641H16.1523L13.8086 3.69141C13.8997 3.54818 13.9714 3.39518 14.0234 3.23242C14.0755 3.06966 14.1016 2.89714 14.1016 2.71484C14.1016 2.23307 13.929 1.81966 13.584 1.47461C13.2389 1.12956 12.8255 0.957031 12.3438 0.957031C11.862 0.957031 11.4486 1.12956 11.1035 1.47461C10.7585 1.81966 10.5859 2.23307 10.5859 2.71484C10.5859 3.20964 10.7585 3.6263 11.1035 3.96484C11.4486 4.30339 11.862 4.47266 12.3438 4.47266C12.4349 4.47266 12.5228 4.46615 12.6074 4.45312C12.6921 4.4401 12.7799 4.42057 12.8711 4.39453L14.6875 6.81641H5.3125L7.12891 4.39453C7.22005 4.42057 7.30794 4.4401 7.39258 4.45312C7.47721 4.46615 7.5651 4.47266 7.65625 4.47266C8.13802 4.47266 8.55143 4.30339 8.89648 3.96484C9.24154 3.6263 9.41406 3.20964 9.41406 2.71484C9.41406 2.23307 9.24154 1.81966 8.89648 1.47461C8.55143 1.12956 8.13802 0.957031 7.65625 0.957031C7.17448 0.957031 6.76107 1.12956 6.41602 1.47461C6.07096 1.81966 5.89844 2.23307 5.89844 2.71484C5.89844 2.89714 5.92448 3.06966 5.97656 3.23242C6.02865 3.39518 6.10026 3.54818 6.19141 3.69141L3.84766 6.81641H0.585938C0.429688 6.81641 0.292969 6.875 0.175781 6.99219C0.0585938 7.10938 0 7.24609 0 7.40234C0 7.57161 0.0585938 7.71159 0.175781 7.82227C0.292969 7.93294 0.429688 7.98828 0.585938 7.98828H1.34766L1.64062 9.16016H18.3594L18.6523 7.98828H19.4141C19.5703 7.98828 19.707 7.93294 19.8242 7.82227C19.9414 7.71159 20 7.57161 20 7.40234C20 7.24609 19.9414 7.10938 19.8242 6.99219C19.707 6.875 19.5703 6.81641 19.4141 6.81641ZM11.7578 2.71484C11.7578 2.55859 11.8164 2.42188 11.9336 2.30469C12.0508 2.1875 12.1875 2.12891 12.3438 2.12891C12.5 2.12891 12.6367 2.1875 12.7539 2.30469C12.8711 2.42188 12.9297 2.55859 12.9297 2.71484C12.9297 2.88411 12.8711 3.02409 12.7539 3.13477C12.6367 3.24544 12.5 3.30078 12.3438 3.30078C12.1875 3.30078 12.0508 3.24544 11.9336 3.13477C11.8164 3.02409 11.7578 2.88411 11.7578 2.71484ZM7.65625 2.12891C7.8125 2.12891 7.94922 2.1875 8.06641 2.30469C8.18359 2.42188 8.24219 2.55859 8.24219 2.71484C8.24219 2.88411 8.18359 3.02409 8.06641 3.13477C7.94922 3.24544 7.8125 3.30078 7.65625 3.30078C7.5 3.30078 7.36328 3.24544 7.24609 3.13477C7.12891 3.02409 7.07031 2.88411 7.07031 2.71484C7.07031 2.55859 7.12891 2.42188 7.24609 2.30469C7.36328 2.1875 7.5 2.12891 7.65625 2.12891ZM3.35938 16.0352C3.45052 16.4258 3.6556 16.7448 3.97461 16.9922C4.29362 17.2396 4.65495 17.3633 5.05859 17.3633H14.9414C15.3451 17.3633 15.7064 17.2396 16.0254 16.9922C16.3444 16.7448 16.5495 16.4258 16.6406 16.0352L18.0664 10.332H1.93359L3.35938 16.0352ZM12.9297 12.0898C12.9297 11.9336 12.9883 11.7969 13.1055 11.6797C13.2227 11.5625 13.3594 11.5039 13.5156 11.5039C13.6719 11.5039 13.8086 11.5625 13.9258 11.6797C14.043 11.7969 14.1016 11.9336 14.1016 12.0898V15.6055C14.1016 15.7747 14.043 15.9147 13.9258 16.0254C13.8086 16.1361 13.6719 16.1914 13.5156 16.1914C13.3594 16.1914 13.2227 16.1361 13.1055 16.0254C12.9883 15.9147 12.9297 15.7747 12.9297 15.6055V12.0898ZM9.41406 12.0898C9.41406 11.9336 9.47266 11.7969 9.58984 11.6797C9.70703 11.5625 9.84375 11.5039 10 11.5039C10.1562 11.5039 10.293 11.5625 10.4102 11.6797C10.5273 11.7969 10.5859 11.9336 10.5859 12.0898V15.6055C10.5859 15.7747 10.5273 15.9147 10.4102 16.0254C10.293 16.1361 10.1562 16.1914 10 16.1914C9.84375 16.1914 9.70703 16.1361 9.58984 16.0254C9.47266 15.9147 9.41406 15.7747 9.41406 15.6055V12.0898ZM5.89844 12.0898C5.89844 11.9336 5.95703 11.7969 6.07422 11.6797C6.19141 11.5625 6.32812 11.5039 6.48438 11.5039C6.64062 11.5039 6.77734 11.5625 6.89453 11.6797C7.01172 11.7969 7.07031 11.9336 7.07031 12.0898V15.6055C7.07031 15.7747 7.01172 15.9147 6.89453 16.0254C6.77734 16.1361 6.64062 16.1914 6.48438 16.1914C6.32812 16.1914 6.19141 16.1361 6.07422 16.0254C5.95703 15.9147 5.89844 15.7747 5.89844 15.6055V12.0898Z" fill="black"/>
</svg>
