<svg width="70" height="71" viewBox="0 0 70 71" fill="none" xmlns="http://www.w3.org/2000/svg">
<path d="M8.90657 67.733H18.4381C18.5705 68.5634 19.2587 69.2128 20.1279 69.2128H41.7983C42.6707 69.2128 43.3557 68.5666 43.4881 67.733H53.0197C54.6319 67.733 55.9373 66.4277 55.9373 64.8154H5.99219C5.99219 66.4277 7.29752 67.733 8.90657 67.733Z" fill="#F3274C"/>
<path d="M67.4171 37.7457C64.9874 35.778 61.5658 35.7457 59.3137 35.9945C59.3784 34.4242 59.4139 32.8184 59.4139 31.1479H0.00195312C0.00195312 47.2061 2.43168 58.7925 17.8081 63.1156H41.6078C47.6982 61.4064 51.737 58.5341 54.4155 54.715C60.2507 54.6019 69.6368 52.3047 69.989 44.2465C70.1409 40.7182 68.674 38.7602 67.4171 37.7457ZM56.8614 50.1076C57.9793 47.2352 58.6417 44.0042 59.0068 40.4533C60.5835 40.1948 63.3008 40.03 64.674 41.1479C64.926 41.3547 65.7112 41.9945 65.6207 44.0591C65.4365 48.2336 60.254 49.6358 56.8614 50.1076Z" fill="#F3274C"/>
<path d="M24.2051 28.8929C24.2051 28.8929 35.5137 28.0625 30.3312 18.5278C26.1696 10.8735 27.1195 6.38238 32.4442 2.32422C32.4442 2.32422 15.0032 6.76687 25.1744 20.5148C28.9063 26.5052 24.2051 28.8929 24.2051 28.8929Z" fill="#F3274C"/>
<path d="M31.8271 28.1305C31.8271 28.1305 40.8869 26.221 35.9564 18.935C34.1664 15.7751 36.6349 14.6475 36.6349 14.6475C36.6349 14.6475 30.8029 14.8316 33.265 19.8429C35.2359 23.872 34.6511 26.1596 31.8271 28.1305Z" fill="#F3274C"/>
</svg>
