<svg xmlns="http://www.w3.org/2000/svg" width="70" height="71" viewBox="0 0 70 71" fill="none">
<path d="M62.5475 41.2388C58.2586 41.2388 56.0164 39.013 54.2145 37.2247C52.5643 35.5868 51.3707 34.4028 48.773 34.4028C47.9705 34.4028 47.302 34.5149 46.7113 34.72C47.3346 41.5726 41.9042 47.5278 35 47.5278C28.0934 47.5278 22.6658 41.5698 23.2887 34.7214C22.698 34.5163 22.0295 34.4028 21.2256 34.4028C18.6279 34.4028 17.4344 35.5868 15.7842 37.2261C13.9822 39.013 11.7414 41.2388 7.45254 41.2388C4.3832 41.2388 2.21006 40.1457 0.0820312 38.1571C1.30689 56.4037 16.4871 70.77 35 70.77C53.4997 70.77 68.695 56.4113 69.918 38.1585C67.7931 40.1397 65.6178 41.2388 62.5475 41.2388ZM53.7578 44.1099C54.6656 43.4345 55.9508 43.6218 56.6275 44.531L58.1328 46.553C58.8096 47.4608 58.6209 48.746 57.7131 49.4228C56.809 50.095 55.523 49.9171 54.8434 49.0017L53.3367 46.9796C52.6613 46.0718 52.8486 44.7866 53.7578 44.1099ZM40.8064 54.9776L43.1102 54.0603C44.1629 53.6419 45.3551 54.1546 45.7748 55.2073C46.1932 56.2601 45.6791 57.4522 44.6277 57.8706C42.4032 58.7128 42.2134 58.9343 41.5652 58.9343C39.3148 58.9343 38.7152 55.8087 40.8064 54.9776ZM22.6146 51.0989C23.7207 50.8528 24.8158 51.5501 25.0605 52.6562L25.6074 55.1171C25.8535 56.2231 25.1562 57.3183 24.0516 57.5644C22.9232 57.8107 21.8457 57.0962 21.6043 56.0071L21.0574 53.5462C20.8113 52.4401 21.5086 51.345 22.6146 51.0989ZM12.7162 44.8645L15.0404 43.8856C16.0836 43.4468 17.2867 43.9362 17.7256 44.9808C18.1658 46.0239 17.675 47.2271 16.6318 47.6659C14.4106 48.5525 14.203 48.8048 13.5133 48.8048C11.2849 48.8048 10.6617 45.7289 12.7162 44.8645Z" fill="#f3274c"/>
<path d="M7.45293 37.1372C10.0506 37.1372 11.2441 35.9532 12.8943 34.314C14.6963 32.5271 16.9371 30.3013 21.226 30.3013C22.4195 30.3013 23.4545 30.4735 24.365 30.7606C28.6002 21.8019 41.3746 21.7468 45.6357 30.7606C46.5463 30.4735 47.5812 30.3013 48.7734 30.3013C53.0609 30.3013 55.3031 32.5257 57.1051 34.314C58.7553 35.9532 59.9488 37.1372 62.5478 37.1372C66.1445 37.1372 67.1781 34.755 69.8582 32.5886C68.2673 14.8001 53.3233 0.77002 35.0004 0.77002C16.7121 0.77002 1.73316 14.7719 0.142578 32.5913C2.82268 34.7501 3.84766 37.1372 7.45293 37.1372ZM16.341 26.938C15.7148 26.938 15.0969 26.6522 14.6936 26.1108L13.1883 24.0888C12.5129 23.181 12.7002 21.8958 13.6094 21.219C14.5172 20.5437 15.8023 20.731 16.4791 21.6401L17.9844 23.6622C18.9983 25.025 18.0026 26.938 16.341 26.938ZM30.5147 15.6642C28.3199 16.4951 28.1028 16.7278 27.4535 16.7278C26.6373 16.7278 25.8676 16.2384 25.5477 15.4345C25.1279 14.3817 25.642 13.1896 26.6947 12.7712L28.9984 11.8538C30.0512 11.4354 31.2434 11.9481 31.6617 13.0009C32.0814 14.0522 31.5674 15.2458 30.5147 15.6642ZM46.4287 19.7247C46.2783 19.7589 46.1293 19.7739 45.9816 19.7739C45.041 19.7739 44.1947 19.1245 43.9814 18.1675L43.4346 15.7065C43.1885 14.6019 43.8857 13.5054 44.9918 13.2606C46.0978 13.0146 47.193 13.7118 47.4391 14.8179L47.9859 17.2788C48.2307 18.3835 47.5334 19.48 46.4287 19.7247ZM60.0377 25.3821C59.9488 26.4526 59.052 27.262 57.9965 27.262C57.9391 27.262 57.8816 27.2593 57.8228 27.2552L55.3113 27.0446C54.182 26.9503 53.3439 25.9577 53.4396 24.8298C53.534 23.7005 54.5252 22.8624 55.6545 22.9567L58.166 23.1673C59.2953 23.2616 60.1334 24.2542 60.0377 25.3821Z" fill="#f3274c"/>
</svg>