<svg width="16" height="14" viewBox="0 0 16 14" fill="none" xmlns="http://www.w3.org/2000/svg">
<path d="M11.2043 0.583008C11.7708 0.583008 12.3079 0.69043 12.8157 0.905273C13.3235 1.12012 13.7629 1.41553 14.134 1.7915C14.5051 2.16748 14.803 2.60938 15.0276 3.11719C15.2424 3.61523 15.3499 4.15234 15.3499 4.72852C15.3499 5.67578 14.9592 6.66699 14.178 7.70215C13.3967 8.7373 12.5374 9.68701 11.5999 10.5513C10.6624 11.4155 9.80298 12.1309 9.02173 12.6973C8.24048 13.2637 7.84985 13.5469 7.84985 13.5469C7.84985 13.5469 7.45923 13.2734 6.67798 12.7266C5.89673 12.1797 5.03735 11.479 4.09985 10.6245C3.16235 9.77002 2.30298 8.82031 1.52173 7.77539C0.740479 6.74023 0.349854 5.72461 0.349854 4.72852C0.349854 4.01562 0.457275 3.40039 0.672119 2.88281C0.896729 2.35547 1.19458 1.92334 1.56567 1.58643C1.93677 1.24951 2.37622 0.998047 2.88403 0.832031C3.38208 0.666016 3.91919 0.583008 4.49536 0.583008C5.18872 0.583008 5.82593 0.739258 6.40698 1.05176C6.98804 1.36426 7.46899 1.7793 7.84985 2.29688C8.23071 1.7793 8.71167 1.36426 9.29272 1.05176C9.87378 0.739258 10.511 0.583008 11.2043 0.583008Z" fill="#C3C3C3"/>
</svg>
