<svg width="72" height="15" viewBox="0 0 72 15" fill="none" xmlns="http://www.w3.org/2000/svg">
<g clip-path="url(#clip0_3_5979)">
<g clip-path="url(#clip1_3_5979)">
<path d="M7.195 11.7078L11.6357 14.9399L9.94934 9.67017L14.39 6.55046H8.99375L7.195 1.15421L5.39625 6.55046H0L4.44066 9.67017L2.75434 14.9399L7.195 11.7078Z" fill="#C3C3C3"/>
<path d="M21.5849 11.7078L26.0256 14.9399L24.3392 9.67017L28.7799 6.55046H23.3836L21.5849 1.15421L19.7861 6.55046H14.3899L18.8306 9.67017L17.1442 14.9399L21.5849 11.7078Z" fill="#C3C3C3"/>
<path d="M35.975 11.7078L40.4157 14.9399L38.7294 9.67017L43.17 6.55046H37.7738L35.975 1.15421L34.1763 6.55046H28.78L33.2207 9.67017L31.5344 14.9399L35.975 11.7078Z" fill="#C3C3C3"/>
<path d="M50.3649 11.7078L54.8056 14.9399L53.1193 9.67017L57.5599 6.55046H52.1637L50.3649 1.15421L48.5662 6.55046H43.1699L47.6106 9.67017L45.9243 14.9399L50.3649 11.7078Z" fill="#C3C3C3"/>
<path d="M64.7551 11.7078L69.1957 14.9399L67.5094 9.67017L71.9501 6.55046H66.5538L64.7551 1.15421L62.9563 6.55046H57.5601L62.0007 9.67017L60.3144 14.9399L64.7551 11.7078Z" fill="#C3C3C3"/>
</g>
</g>
<defs>
<clipPath id="clip0_3_5979">
<rect width="71.95" height="14.39" fill="white" transform="translate(0 0.549805)"/>
</clipPath>
<clipPath id="clip1_3_5979">
<rect width="71.95" height="14.39" fill="white" transform="matrix(1 0 0 -1 0 14.9399)"/>
</clipPath>
</defs>
</svg>
