<svg width="71" height="71" viewBox="0 0 71 71" fill="none" xmlns="http://www.w3.org/2000/svg">
<path d="M54.0453 25.9464C53.9507 26.372 53.6266 26.7095 53.2052 26.8217C52.4212 27.031 51.6591 27.3162 50.9301 27.673C50.3485 27.9491 49.7904 28.2733 49.2617 28.6418C49.0401 28.7929 48.8185 28.9446 48.6086 29.108C48.2588 29.3766 47.9084 29.6682 47.5704 29.9598L46.6486 30.8816C46.6486 30.8933 46.6368 30.9046 46.6251 30.9163C46.4269 31.1379 46.2171 31.3596 46.0184 31.593C46.0184 31.6047 46.0066 31.6165 45.9837 31.6282C45.3941 32.3518 44.8557 33.1156 44.3735 33.915C44.2688 34.0667 44.1871 34.2184 44.0936 34.3813C43.802 34.895 43.5334 35.42 43.2653 35.9797C43.2183 36.0967 43.1719 36.2013 43.1136 36.3183C42.845 36.925 42.6004 37.5664 42.3788 38.2201C42.2736 38.5464 42.1684 38.8615 42.0754 39.1883C41.8885 39.8415 41.7133 40.5181 41.5734 41.2183C41.5152 41.5334 41.4453 41.8479 41.3988 42.1748C41.3518 42.5016 41.2936 42.805 41.2583 43.1201C41.2119 43.3881 41.1772 43.6562 41.1537 43.9249C41.1184 44.2747 41.0837 44.6362 41.0602 44.9983C41.0255 45.4181 41.002 45.8384 40.9902 46.2699H66.6218C66.4936 36.2948 64.6501 29.4583 61.3138 26.238L64.0786 17.9547C64.296 17.3897 64.8647 17.0409 65.4672 17.1029C67.8517 17.1008 69.8512 15.301 70.1033 12.9292C70.3549 10.5575 68.7783 8.378 66.4472 7.87492C65.809 7.73499 65.1483 7.73499 64.5101 7.87492C64.0984 7.96464 63.6743 7.78733 63.4484 7.43165C62.3595 5.86099 60.423 5.11331 58.5613 5.54429C56.6995 5.97474 55.2886 7.49734 55.0002 9.38684C54.7123 11.2758 55.6047 13.1498 57.2534 14.1164C57.7399 14.4209 57.9492 15.0227 57.7554 15.5632L54.8736 24.1615C54.3123 24.216 53.7553 24.3052 53.2052 24.4296C53.3569 24.5583 53.5085 24.6748 53.6602 24.8029C53.9887 25.0849 54.1366 25.5234 54.0453 25.9464ZM59.9605 16.2981C60.4978 14.7189 59.8676 12.9784 58.4438 12.11C57.6187 11.6277 57.1711 10.6921 57.3132 9.74732C57.4558 8.80258 58.1597 8.03994 59.09 7.82311C60.0203 7.60575 60.9891 7.97746 61.5354 8.76145C62.2933 9.89472 63.6695 10.4464 65.0004 10.15C65.3203 10.0913 65.6482 10.0913 65.9686 10.15C66.8856 10.3588 67.5911 11.0921 67.7652 12.0165C67.8913 12.7039 67.7022 13.412 67.2504 13.9456C66.798 14.4785 66.131 14.7814 65.4319 14.7696C63.8383 14.7317 62.3995 15.7192 61.8617 17.2199L59.3303 24.8147L59.0852 24.71C58.886 24.615 58.6793 24.537 58.4667 24.4766C58.385 24.4531 58.3033 24.4179 58.2104 24.3949C58.1169 24.3714 58.047 24.3479 57.9535 24.325C57.9044 24.3079 57.8536 24.2961 57.8018 24.2897C57.6502 24.255 57.4867 24.2198 57.3233 24.1963L59.9605 16.2981Z" fill="#F3274C"/>
<path d="M12.3249 62.9766C14.4585 63.6255 16.4585 64.653 18.2284 66.01C21.1449 68.1799 26.4417 70.7701 35.1334 70.7701C43.8247 70.7701 49.1215 68.1799 52.0385 66.01C53.8084 64.653 55.8079 63.6255 57.9414 62.9766C61.9084 61.8102 68.7801 58.6133 70.0864 50.3301C70.2467 49.3159 69.9556 48.2831 69.2891 47.5023C68.6226 46.7215 67.6479 46.2713 66.6215 46.2702C66.6332 46.6553 66.6332 47.0403 66.6332 47.4366C66.6332 48.0812 66.1109 48.6035 65.4668 48.6035H21.1331C21.1331 49.6337 20.457 50.5421 19.4701 50.838C18.4826 51.1339 17.4188 50.7472 16.8516 49.8868C16.7987 49.8089 16.7357 49.7384 16.6647 49.677C16.2283 49.2567 15.5378 49.2567 15.1015 49.677C15.0304 49.7384 14.968 49.8089 14.9151 49.8868C14.4323 50.6222 13.5762 51.0222 12.7025 50.9213C11.8288 50.8198 11.0864 50.2345 10.7847 49.4083C10.6469 49.0259 10.3195 48.7434 9.92165 48.6617C9.52431 48.5902 9.11736 48.7215 8.83644 49.0115C8.40172 49.4943 7.78275 49.7699 7.13333 49.7699C6.01075 49.7592 5.05532 48.9512 4.85825 47.8462C4.66118 46.7418 5.27909 45.6528 6.32851 45.255C6.71036 45.1172 6.99341 44.7898 7.07512 44.3919C7.15203 43.9941 7.02011 43.5844 6.72478 43.3067C6.24199 42.872 5.96642 42.253 5.96642 41.6036C5.97069 40.3165 7.01264 39.274 8.29972 39.2703C8.57155 39.2714 8.84018 39.3232 9.09333 39.422C9.46289 39.5587 9.87625 39.4973 10.1897 39.2586C10.5048 39.0134 10.6789 38.63 10.6565 38.2316C10.6432 38.1904 10.6351 38.1472 10.633 38.1034C10.6373 36.8163 11.6798 35.7738 12.9668 35.7701C13.7775 35.7717 14.5274 36.2022 14.9381 36.9018C14.8334 37.2633 14.7517 37.6249 14.67 37.987C14.5882 38.3485 14.5183 38.6983 14.4601 39.0487C14.451 39.0578 14.4467 39.0706 14.4483 39.0834C14.3901 39.4332 14.3431 39.7835 14.2966 40.1333C14.2614 40.3902 14.2384 40.6466 14.2149 40.9035C14.1914 41.1368 14.1797 41.3585 14.1685 41.5801C14.145 41.9769 14.1332 42.3732 14.1332 42.77C14.1332 43.4146 14.6555 43.9369 15.3001 43.9369C16.2914 43.9422 17.1709 44.574 17.493 45.5118C17.6222 45.9113 17.9651 46.2045 18.3801 46.2702C18.4757 46.29 18.5739 46.298 18.6716 46.2932C18.6914 46.2932 18.7112 46.2894 18.7299 46.282C18.7614 46.2841 18.7934 46.2804 18.8233 46.2702H38.6566C38.6684 45.9551 38.6801 45.64 38.7031 45.3367C38.7015 45.2779 38.7052 45.2197 38.7148 45.1615C38.7266 44.8507 38.7501 44.5356 38.7848 44.2168C38.8083 43.8787 38.843 43.5519 38.89 43.225C38.9365 42.8982 38.9717 42.5836 39.0182 42.2568C40.2898 33.9853 44.5601 28.4669 49.3549 25.8649C49.7282 25.6668 50.1015 25.4799 50.4748 25.317C51.3517 24.9271 52.2665 24.6302 53.2049 24.4299C49.0606 21.1503 43.9182 19.3884 38.6331 19.437C28.7167 19.4322 19.7456 25.3186 15.8016 34.4168C14.9947 33.7786 13.9954 33.4331 12.9668 33.4368C10.8397 33.4384 8.98331 34.8777 8.45139 36.937C6.78139 36.882 5.20912 37.7247 4.33007 39.1459C3.45047 40.567 3.39867 42.3497 4.19335 43.8199C3.37731 44.4918 2.80747 45.4152 2.57141 46.4448C1.94657 46.6478 1.38954 47.0195 0.961764 47.5183C0.305942 48.298 0.0207549 49.3239 0.179904 50.3301C1.48674 58.6133 8.35846 61.8102 12.3249 62.9766ZM35.3316 24.2318C35.6841 23.6956 36.4034 23.5445 36.9418 23.8932C38.6977 25.0724 40.3245 26.4332 41.7947 27.9536C42.0142 28.1715 42.1371 28.469 42.1349 28.7782C42.1323 29.088 42.0057 29.3833 41.783 29.5985C41.5662 29.8138 41.2724 29.9355 40.9664 29.9366C40.654 29.9387 40.3544 29.8122 40.1381 29.5868C38.7752 28.1902 37.2745 26.9357 35.6584 25.842C35.3994 25.6732 35.2194 25.4078 35.158 25.105C35.0966 24.8027 35.1591 24.4876 35.3316 24.2318ZM28.2617 28.2452C28.4 27.9686 28.6425 27.7592 28.9362 27.6626C29.23 27.5664 29.5499 27.591 29.8249 27.732C32.7446 29.2199 35.2894 31.3497 37.2681 33.9618C37.44 34.2181 37.5025 34.5327 37.4411 34.835C37.3797 35.1372 37.1997 35.4027 36.9418 35.572C36.7538 35.7033 36.5295 35.7728 36.2998 35.7701C35.9094 35.768 35.5463 35.5709 35.3316 35.2451C33.566 32.9791 31.3288 31.1238 28.775 29.8084C28.4983 29.6701 28.289 29.4271 28.1923 29.1339C28.0962 28.8402 28.1207 28.5203 28.2617 28.2452ZM21.1801 34.3116C21.3355 33.6937 21.9614 33.3182 22.5799 33.4715C22.7898 33.5185 27.7485 34.8366 32.6015 42.1286C32.7734 42.3849 32.8359 42.699 32.7745 43.0018C32.7131 43.304 32.5331 43.5695 32.2752 43.7382C32.0872 43.8701 31.8629 43.9396 31.6332 43.9369C31.2428 43.9348 30.8797 43.7377 30.665 43.4119C26.3482 36.9482 22.0549 35.7466 22.0084 35.7349C21.3873 35.5698 21.0167 34.9332 21.1801 34.3116Z" fill="#F3274C"/>
<path d="M33.9668 8.93683C33.9668 9.5809 34.4891 10.1032 35.1337 10.1032C35.7778 10.1032 36.3001 9.5809 36.3001 8.93683C36.3001 8.84818 36.3001 8.83643 36.5415 8.59503C37.1284 8.09943 37.4665 7.37044 37.4665 6.603C37.4665 5.83502 37.1284 5.10603 36.5415 4.61043C36.3001 4.36797 36.3001 4.35622 36.3001 4.27023C36.3001 4.18372 36.3001 4.1709 36.5415 3.93057C37.1247 3.43123 37.4622 2.70384 37.467 1.93694C37.467 1.29233 36.9447 0.77002 36.3001 0.77002C35.656 0.77002 35.1337 1.29233 35.1337 1.93694C35.1337 2.02399 35.1337 2.03574 34.8918 2.27713C34.3091 2.77594 33.9716 3.50279 33.9668 4.27023C33.9721 5.03661 34.3097 5.76399 34.8918 6.2628C35.1337 6.50206 35.1337 6.51328 35.1337 6.60353C35.1337 6.69325 35.1337 6.70393 34.8918 6.94533C34.3102 7.4436 33.9727 8.17046 33.9668 8.93683Z" fill="#F3274C"/>
<path d="M26.9668 14.7698C26.9668 15.4144 27.4891 15.9367 28.1332 15.9367C28.7778 15.9367 29.3001 15.4144 29.3001 14.7698C29.3001 14.6811 29.3001 14.6699 29.5415 14.428C30.1284 13.9324 30.4665 13.2034 30.4665 12.4354C30.4665 11.6674 30.1284 10.9385 29.5415 10.4429C29.3001 10.2025 29.3001 10.1908 29.3001 10.1032C29.3001 10.0156 29.3001 10.0044 29.5415 9.76407C30.1241 9.26472 30.4617 8.53734 30.467 7.7699C30.467 7.12582 29.9442 6.60352 29.3001 6.60352C28.6555 6.60352 28.1332 7.12582 28.1332 7.7699C28.1332 7.85748 28.1332 7.86923 27.8918 8.10956C27.3054 8.60516 26.9668 9.33362 26.9668 10.1016C26.9668 10.8696 27.3054 11.598 27.8918 12.0936C28.1332 12.3361 28.1332 12.3478 28.1332 12.4365C28.1332 12.5251 28.1332 12.5369 27.8918 12.7783C27.3097 13.2771 26.9727 14.0034 26.9668 14.7698Z" fill="#F3274C"/>
<path d="M40.9668 14.7698C40.9668 15.4144 41.4891 15.9367 42.1337 15.9367C42.7778 15.9367 43.3001 15.4144 43.3001 14.7698C43.3001 14.6811 43.3001 14.6699 43.542 14.428C44.1284 13.9324 44.467 13.2034 44.467 12.4354C44.467 11.6674 44.1284 10.9385 43.542 10.4429C43.3001 10.2025 43.3001 10.1908 43.3001 10.1032C43.3001 10.0156 43.3001 10.0044 43.542 9.76407C44.1247 9.26472 44.4622 8.53734 44.467 7.7699C44.467 7.12582 43.9447 6.60352 43.3001 6.60352C42.656 6.60352 42.1337 7.12582 42.1337 7.7699C42.1337 7.85748 42.1337 7.86923 41.8923 8.10956C41.3054 8.60516 40.9673 9.33362 40.9673 10.1016C40.9673 10.8696 41.3054 11.598 41.8923 12.0936C42.1337 12.3361 42.1337 12.3478 42.1337 12.4365C42.1337 12.5251 42.1337 12.5369 41.8923 12.7783C41.3102 13.2771 40.9727 14.0034 40.9668 14.7698Z" fill="#F3274C"/>
</svg>
